<svg width="885" height="788" viewBox="0 0 885 788" fill="none" xmlns="http://www.w3.org/2000/svg">
<g clip-path="url(#clip0_38_138)">
<path d="M154.5 259C157 242.5 169.003 233 170 233.5C170.997 234.003 171.558 248.149 175.5 256.5C179.601 265.188 190.5 276 190.5 276C190.5 276 186.419 291.162 189 301C190.906 308.266 198 319 198 319C198 319 195.343 325.607 193 330C189.01 337.481 187.507 347.451 187.5 347.5C187.517 347.47 189.042 344.809 190.95 341.308C194.233 347.191 215.141 383.688 239 402.5C275.201 431.043 298.5 420 305.5 429C307.341 431.368 309.889 441.148 312.5 449C317.197 463.127 323 485 323 485C323 484.985 323.447 457.651 320 443C317.666 433.078 313.937 424.656 312.5 422.5C310.804 419.956 306.832 418.418 301.328 417.043C305.047 410.496 320.514 383.352 331.5 365.5C339.5 352.5 349 340.65 354 337.5C359 334.35 365.86 331.47 373 330C390 326.5 423.5 322 426 315.5C429.203 307.173 423.052 299.275 422.115 298.141C439.889 298.699 459.77 295.107 484 287.5C488.626 286.048 492.933 284.495 496.938 282.884C496.624 287.701 495.665 310.895 505.5 319.5C509.5 323 521 329 521 329C521 329 513.263 322 508.5 312.5C506.816 309.14 505.647 304.983 504.834 300.765C508.328 298.847 517.969 293.67 525 291C533.901 287.619 537.487 284.593 547 285C556.818 285.42 563.706 288.229 572 293.5C580.507 298.906 584.933 303.096 590.5 311.5C596.268 320.207 597.059 324.238 599 334.5C602.5 353 603 379 603 379C603.005 378.973 604.596 370.568 605.416 360.2C607.05 366.855 612.979 391.326 614.5 402.5C616.69 418.588 616.582 428.79 617.5 445C618.329 459.642 618.294 467.884 619.5 482.5C620.89 499.348 622.633 506.821 624.5 523C625.8 534.268 631.984 555.679 633.608 561.184C622.715 560.061 614.733 559.117 599.5 551.5C579.5 541.5 606.5 499.5 606.5 451.5C606.5 414 589.949 388.117 583.5 373.5C576.001 356.501 555.003 327.004 554 328C551.849 330.151 577.5 358.5 587.5 390.5C594.742 413.673 597.9 418 599.5 451.5C600.598 474.5 585 532 585 539.5C585 552.5 590 556.986 591 564.5C591.999 572.009 590.003 597.468 590 597.5C590.011 597.462 593.004 586.656 595 580.5C597 574.333 597.93 566.5 603 562.5C608.07 558.5 614.081 561.123 620.5 563.5C647.5 573.5 663.261 572.717 691 576.5C735 582.5 775.629 589.205 820.5 617.5C844 632.319 886.86 659 885 674.5C883.5 687 876.5 725.473 869 731C857.517 739.461 812.137 750.467 812 750.5L820.5 751.5C820.5 751.5 709.5 775.5 669.5 785.5C626.19 796.327 631.353 836.348 628.5 861C625.402 887.765 630.992 929.936 631 930L616.007 911.479C616.154 879.34 619.598 786.081 620.681 757.456C625.443 736.736 629.979 714.11 629 707.5C628.197 702.08 619.098 692.756 605.612 682.093C614.762 678.046 642.713 666.329 671 661C707.248 654.171 737 650.5 764 644.5C769 643.388 781.5 628 781.5 628C781.5 628 768.327 639.182 758 641.5C733.5 647 716 644.698 677 653C656.14 657.441 623.398 667.314 605.925 672.743C603.888 671.299 599.412 668.063 596.5 665.5C584 654.5 589.5 605 589.5 605C589.5 605 585.85 634.803 581.5 653.5C580.801 656.504 579.768 660.564 579.115 663.106C563.234 652.628 545.505 642.253 529 634C509 624 457 612.5 440.5 612.5C432.768 612.5 421.31 614.554 410 620C396.529 626.486 392.02 636.457 392 636.5C392.063 636.43 410.041 616.5 433.5 616.5C452.5 616.5 500 632 526 642C545 649.308 613 691.5 620.5 708.5C622.264 712.501 609.5 779.5 611 796C611.036 796.393 613.665 786.598 616.912 773.324C616.149 793.544 610.645 940.192 609.5 996C607.913 1073.37 639.697 1110.12 652.892 1122H493.634C493.559 1120.8 493.5 1119.55 493.5 1118.5C493.5 1110.5 496.772 1102.5 497 1090C497.1 1084.54 496.525 1077.24 496.059 1072.35C503.327 1080.75 514.5 1091 514.5 1091C514.5 1091 501.493 1071.9 496 1062.5C492.957 1057.29 491.5 1056 491.5 1054.5C491.5 1053 496 1050 497 1038.5C498 1027 456.5 957 456.5 867C456.5 824.605 467.5 776.5 467.5 759C467.5 752.509 465.397 748.69 461.5 743.5C457.666 738.395 448.559 733.531 448.5 733.5C448.554 733.546 458.776 742.243 460.5 750C460.788 751.296 459.912 759.388 458.523 771.317L458 773.5C458 773.5 455.5 794.052 441.5 797C429 799.632 410.393 793.47 395.5 788C380.607 782.53 370.5 776.5 361 770C354 765.211 347.829 753.893 343.5 741.5C338.196 726.312 339.778 705.572 340 700.5C340.731 683.819 342.69 674.489 347.5 658.5C353.743 637.748 360.177 627.054 370.5 608C378.013 594.132 383.85 587.293 391.5 573.5C400.479 557.31 412.5 540.513 412.5 531C412.5 521 405.588 513.498 402 502C398.332 490.245 393.556 483.806 394 471.5C394.247 464.644 397.406 455.359 399.038 450.98C400.656 448.971 402.366 447.018 404.5 444.5C411.73 435.967 424.5 424 424.5 424C424.5 424 413 426 405 435C395.896 445.242 393.57 451.5 385.5 464.5C376.404 479.153 373.528 485.01 365 500C362.411 504.55 357.625 512.045 354.262 517.236C354.835 515.027 355.393 512.666 356 510C356.663 507.088 356.707 502.502 356 502.5C354.5 502.5 348.334 516.332 343 527C339 535 338 539 330.5 549C323.285 558.62 314.5 565 304 565C293.5 565 276.224 556.06 259 546C207.507 515.924 159.335 467.576 146.281 456.594C147.751 456.262 149.304 455.893 151 455.5C157.196 454.064 160.734 453.185 166.5 450.5C171.904 447.984 174.753 446.105 179.5 442.5C183.245 439.656 185.308 437.856 188 434C190.202 430.847 191.415 429.19 192.5 425.5C193.559 421.896 192.87 417.027 193 412.5C193.273 402.983 189.512 390.041 189.5 390C189.5 390 189.5 419 184 428C179 436.182 171.798 439.195 162.5 444C154.342 448.216 148.549 449.626 140.638 451.366C142.116 450.876 143.64 450.19 145.5 449C149.572 446.395 152.668 443.735 155 439.5C157.033 435.808 157.96 431.726 158 429.5C158.061 426.164 156.351 424.776 154.5 422C152.584 419.126 149 416 149 415C149 414 151.686 410.322 152 407C152.357 403.226 151.233 401.085 150 397.5C148.949 394.444 148.114 392.8 146.5 390C144.958 387.325 142.493 386.587 142.5 383.5C142.506 380.787 144.553 380.042 145.5 377.5C146.939 373.64 146.798 371.108 146.5 367L146.487 366.824C146.233 363.321 146.042 360.688 144.5 357.5C142.692 353.763 141.049 352.153 137.5 350C133.896 347.814 131.203 347.82 127 347.5C123.49 347.233 122.519 347.415 119 347.5C116.267 347.566 113.704 347.597 111 348C107.519 348.519 105.528 349.205 102.5 351C100.83 351.991 98.5249 353.979 98.5 354C98.5432 353.994 102.485 353.444 105 353C108.734 352.341 116 351.5 120.5 351.5C125 351.5 133.5 351.5 136 353.5C138.556 355.545 137.896 358.283 138.5 361.5C139.186 365.151 139.4 366.786 139.5 370.5C139.605 374.404 138.5 380 138 383C137.667 385 139.041 386.252 140.5 388C142.278 390.13 144.299 390.807 146 393C147.713 395.209 149.1 396.706 149 399.5C148.915 401.858 147.605 402.916 146.5 405C144.978 407.871 142.481 408.786 142 412C141.827 413.159 141.876 413.835 142 415C142.216 417.027 142.499 418.224 143.5 420C144.721 422.165 146.406 422.593 148 424.5C149.529 426.329 151.5 427.117 151.5 429.5C151.5 431 149.389 435.102 147 438C144.885 440.566 143.382 441.841 140.5 443.5C137.289 445.349 135.052 445.447 131.5 446.5C128.594 447.361 126.904 447.631 124 448.5C121.042 449.385 115.897 451.697 110 451C106.99 450.644 104.335 450.073 101.5 449C98.6416 447.919 95.5001 446.854 94.5 445.5C92.514 442.812 93.6444 440.339 93.5 437C93.3226 432.899 94.5342 429.473 93.5 425.5C92.9056 423.217 92.7147 423.022 91.5 421C89.7879 418.15 88.1556 417.032 86 414.5C83.6659 411.759 81.2756 410.867 80 407.5C78.891 404.573 79.4126 402.629 79.5 399.5C79.6076 395.648 80.8524 390.361 81.5439 387.69C82.4517 388.163 83.4347 388.601 84.5 389C87.8367 390.25 93.5 390.5 93.5 390.5C93.5 390.5 90.2022 386.891 88 385C85.5347 382.883 84.9878 382.591 82.5 380.5C80.8088 379.079 79.5075 378.615 78 377C76.5835 375.483 74.9629 374.023 74.5 372C74.2823 371.048 74.4118 370.878 74.5 369.5C74.6344 367.401 74.8436 365.998 75.5 364C76.2538 361.705 76.2806 360.806 77 358.5C77.8101 355.904 78.6149 354.072 79.5 351.5C80.2728 349.255 81.6335 346.088 82.4111 344.322C83.8488 344.069 85.3544 343.81 87 343.5C95.6585 341.871 99.9238 341.519 108.5 339.5C113.387 338.35 121 336.5 121 336.5C121 336.5 104.467 335.23 94 336.5C87.8795 337.242 84.2896 337.381 78.5 339.5C72.8366 341.573 70.3705 345.119 64.5 346.5C56.0001 348.5 46.9266 347.916 36 347.5C27.3949 347.172 22.539 346.613 14 345.5C8.32166 344.76 0.0567193 342.515 0 342.5C0.0605838 342.466 11.5291 336.109 22.5 330.5C35.9308 323.633 43.2314 321.394 57.5 316.5C70.2376 312.132 79.0284 310.115 92 306.5C107.51 302.177 114.419 301.061 130 297C135.916 295.458 144.498 293.278 149.488 292.015C147.321 295.25 144.251 296.174 143.5 300C142.807 303.533 144.294 305.607 145.5 309C146.904 312.95 150.5 318.5 150.5 318.5V302.5C150.541 302.462 156.661 296.798 158.5 292C159.481 289.44 159.819 285.616 159.937 283.516C166.52 287.499 173.5 287.5 173.5 287.5C173.5 287.5 152 275.5 154.5 259ZM39.5 768C50.436 767.903 68 769 68 769C68 769 62.4705 780 62 788.5C61.583 796.033 65.5 808.5 65.5 808.5C65.5 808.5 47.8199 796.55 37 788.5C26.771 780.89 11.5668 768.554 11.5 768.5C11.5909 768.498 28.5881 768.097 39.5 768ZM375 591.5C375 591.5 359.704 608.392 357 611C326.363 640.548 293.562 668.865 267.5 674C245.377 678.359 235.569 681.678 216.5 682.229C215.905 687.945 214.091 694.17 211.5 701.5C204.785 720.495 196.772 733.295 183 748C149.393 783.882 104.5 797.825 65.3574 787.416L66.6426 782.584C66.7814 782.623 127.057 799.436 176.5 744C190.218 728.62 196.5 717 204 698.598C206.483 692.504 207.5 688.499 208 682.229C183.501 682.435 149 682.229 122.481 671.945C107.717 666.219 95.644 659.536 86.5 648C77.3491 636.455 75.6988 623.552 83 609.5C89.9415 596.14 100.971 589.771 116.5 586C130.659 582.561 141.61 585.099 155.5 589.5C180.212 597.329 194 608 207.5 633C215.536 647.882 217.6 662.754 217 676.5C235.454 675.926 260.634 672.846 276.5 666.5C299 657.5 324.462 638.452 355 609C361.602 602.633 379.5 584 379.5 584L375 591.5ZM507 717C507.052 717.07 522.5 737.94 522.5 743.5C522.5 748.495 519.007 768.459 519 768.5C519.018 768.445 525.962 746.965 525.5 743.5C524.502 736.013 507.062 717.068 507 717ZM833.5 654C833.5 654 831 668 825.5 673.5C820.434 678.566 812.048 685.958 812 686C812.071 685.956 826.507 676.994 829.5 674.5C834.574 670.271 833.502 654.023 833.5 654ZM152.5 596C139.933 591.701 126.441 590.597 115.5 593C104.616 595.39 94 603.5 88.5 612.5C81.2644 624.34 82.9204 635.676 91.5 646.5C100.087 657.333 109.599 661.854 123.519 667.054C151 677.319 184.39 677.745 208.5 677.5C209.728 660 205.27 646.5 198 633C189.254 616.76 171.5 602.5 152.5 596ZM503.5 362.5L498.5 358.5L504.5 364.5L503.5 358.5V362.5ZM492.5 353.5C492.5 353.5 488.889 342.945 478 344.5C464 346.5 460 347.5 447 348.5C431.722 349.675 404.615 349.999 404.5 350C404.599 350.014 425.053 352.996 447 351.5C462.081 350.472 480.831 345.165 485.5 347.5C487.5 348.5 492.5 353.5 492.5 353.5ZM532.5 326.5C532.5 326.5 524.28 332.527 518.5 335.5C515.08 337.259 512 338 509.5 339.5C506.159 341.505 504.508 347.473 504.5 347.5C504.52 347.468 507.482 342.841 510.5 341.5C515 339.5 516.801 338.819 520.5 336.5C525.668 333.26 532.5 326.5 532.5 326.5ZM334.523 245.81C338.386 254.038 344.826 264.336 355 272C363.564 278.451 371.857 283.691 380.207 287.743L381 292.5C381 292.5 373 297 361.5 304C353.106 309.11 342.052 319.949 342 320C342.001 319.981 342.706 308.09 343.5 300.5C344.403 291.876 347 278.5 347 278.5C347 278.5 342.292 278.5 334 283C329.003 285.712 322.54 291.961 322.5 292C322.507 291.965 325.171 278.38 328 270C330.436 262.785 336 249.5 336 249.5L334.523 245.81ZM462.5 10C462.563 10.0742 482.022 33.0027 495.5 52C506.783 67.903 522.5 94 522.5 94C522.5 94 512.5 112.833 515 114.5C517.501 116.165 541.5 99.5 541.5 99.5C541.589 99.5539 563.752 113.001 580 118C599.5 124 618 124 618 124L598.5 131L564 138C564.083 138.028 579.858 143.321 588 146C596.638 148.843 609.5 152.5 609.5 152.5C609.5 152.5 599.994 171.12 593 182C584.014 195.978 570.543 217.431 570.5 217.5C570.505 217.52 571.42 220.892 578 223.5C592.159 229.111 625 227 625 227C625 227 603.707 238.957 589 244C572.106 249.792 540.768 256.049 538.616 256.476C541.28 253.724 542.489 252.015 542.5 252C542.418 252.058 506.961 276.826 473.5 284C451.884 288.634 438.328 291.781 422 290.5C349.563 284.819 329.535 232.092 329.5 232C329.505 232.023 330.699 237.314 333.914 244.478C332.265 244.023 306.872 237.244 274 241.5C247.056 244.989 223.597 255.955 223.5 256C223.554 255.932 239.026 236.429 254 196C262.01 174.373 273.5 146.295 276 144C278.503 141.705 331.25 131.5 333.5 127C334.999 123.999 318.89 109.499 301.5 86C289.845 70.2494 269.561 50.559 269.5 50.5C269.65 50.5048 316.567 51.9936 358.5 48C400.5 44 443.842 41.114 446.5 42C449.5 42.9998 451 43.5003 460.5 53C467.518 60.0178 473 71.4286 475.5 70C477.999 68.5702 473 49.9282 471 40.5C468.438 28.4211 462.516 10.0511 462.5 10ZM539.5 213.5C544.498 209.999 499.999 182.5 431.5 191.5C364 203 346 233.5 348 235.5C349.771 237.267 396.649 230.356 439.5 225C500.5 217.375 535.929 216 539.5 213.5ZM450.5 197C469 196.5 482.742 197 483.5 199.5C484.257 202 472.999 213.5 452.5 214.5C432 215.5 417.964 203.5 418.5 202C419.036 200.5 433.5 197.459 450.5 197ZM256.5 21C256.529 21.0411 261.593 28.3269 265 33C267.99 37.1004 272.638 43.2117 273.754 44.6758C263.745 44.888 257.057 44.9991 257 45C257.057 45.0644 278.92 69.7831 292.5 86C303.816 99.514 322.499 118.005 321.5 122.5C320.054 129 274.502 137.5 272 139.5C271.468 139.925 270.52 141.565 269.264 144.099L262 151C262 151 253.456 134.465 250 123C246.684 111.997 245 96.5 245.5 94C245.9 92 249.625 88.2522 252.5 84.5C255.896 80.0668 261 73 261 73C261 73 255.534 74.5963 252 75.5C248.712 76.3407 243.55 77.4889 243.5 77.5C243.502 77.4761 244.622 60.983 247.5 49.5C250.112 39.0776 256.5 21 256.5 21ZM592 0C592.01 0.0334234 594.502 8.5148 595.886 16C597.556 25.035 597.366 36.4914 597.366 36.5C597.366 36.5 591.195 37.5748 589.5 38C587.688 38.4547 581.196 41.5 581.196 41.5C581.196 41.5 590.702 46.0152 593 47C596.5 48.4999 599.008 48.4595 599.5 50C600.115 51.9261 600.5 68.0002 599.5 78.5C598.538 88.6051 593.203 112.381 592.562 115.221C589.907 114.568 587.213 113.832 584.5 113C568.078 107.964 544.593 94.553 544.5 94.5C544.5 94.5 535.5 94.9998 531.5 93C530.043 92.2716 527.876 89.6083 525.158 85.6582L525.5 86C525.575 85.9439 543.545 72.4469 565 47C586.5 21.5001 592 0 592 0Z" fill="white"/>
</g>
<defs>
<clipPath id="clip0_38_138">
<rect width="885" height="788" fill="white"/>
</clipPath>
</defs>
</svg>
