<svg width="890" height="788" viewBox="0 0 890 788" fill="none" xmlns="http://www.w3.org/2000/svg">
<g clip-path="url(#clip0_27_9)">
<path d="M160.048 276.998C162.548 260.498 174.551 250.998 175.548 251.498C176.545 252.003 177.107 266.148 181.048 274.498C185.149 283.186 196.048 293.998 196.048 293.998C196.048 293.998 191.967 309.16 194.548 318.998C196.454 326.264 203.548 336.998 203.548 336.998C203.548 336.998 200.89 343.605 198.548 347.998C194.559 355.477 193.056 365.442 193.048 365.498C193.07 365.46 194.592 362.801 196.498 359.305C199.78 365.186 220.688 401.686 244.548 420.498C280.749 449.041 304.048 437.998 311.048 446.998C312.889 449.366 315.437 459.146 318.048 466.998C322.745 481.125 328.548 502.998 328.548 502.998C328.548 502.977 328.995 475.648 325.548 460.998C323.213 451.077 319.485 442.654 318.048 440.498C316.352 437.955 312.379 436.416 306.876 435.041C310.595 428.494 326.062 401.35 337.048 383.498C345.048 370.498 354.548 358.648 359.548 355.498C364.548 352.348 371.407 349.468 378.548 347.998C395.548 344.498 429.048 339.998 431.548 333.498C434.75 325.171 428.601 317.274 427.663 316.139C445.437 316.697 465.318 313.105 489.548 305.498C494.174 304.046 498.481 302.493 502.485 300.882C502.172 305.699 501.213 328.893 511.048 337.498C515.048 340.998 526.548 346.998 526.548 346.998C526.548 346.998 518.81 339.998 514.048 330.498C512.364 327.138 511.195 322.981 510.382 318.763C513.877 316.845 523.517 311.668 530.548 308.998C539.449 305.618 543.035 302.591 552.548 302.998C562.366 303.418 569.254 306.227 577.548 311.498C586.055 316.904 590.481 321.095 596.048 329.498C601.815 338.205 602.606 342.236 604.548 352.498C608.048 370.998 608.548 396.998 608.548 396.998C608.555 396.96 610.145 388.559 610.964 378.197C612.598 384.851 618.526 409.324 620.048 420.498C622.238 436.586 622.13 446.788 623.048 462.998C623.877 477.64 623.842 485.882 625.048 500.498C626.438 517.346 628.181 524.819 630.048 540.998C631.348 552.266 637.532 573.677 639.156 579.182C628.263 578.059 620.281 577.115 605.048 569.498C585.048 559.498 612.048 517.498 612.048 469.498C612.048 431.998 595.497 406.115 589.048 391.498C581.549 374.5 560.553 345.006 559.548 345.998C557.397 348.149 583.048 376.498 593.048 408.498C600.289 431.671 603.448 435.998 605.048 469.498C606.146 492.498 590.548 549.998 590.548 557.498C590.548 570.498 595.548 574.984 596.548 582.498C597.547 590.005 595.551 615.453 595.548 615.498C595.562 615.445 598.553 604.65 600.548 598.498C602.548 592.331 603.477 584.498 608.548 580.498C613.618 576.499 619.629 579.121 626.048 581.498C653.047 591.498 668.809 590.715 696.548 594.498C740.548 600.498 781.177 607.203 826.048 635.498C849.548 650.317 892.408 676.998 890.548 692.498C889.048 704.998 882.048 743.471 874.548 748.998C863.073 757.453 817.745 768.45 817.548 768.498L826.048 769.498C826.048 769.498 715.048 793.498 675.048 803.498C631.738 814.326 636.901 854.346 634.048 878.998C630.95 905.764 636.54 947.938 636.548 947.998L621.555 929.478C621.702 897.338 625.146 804.079 626.229 775.454C630.991 754.735 635.527 732.108 634.548 725.498C633.745 720.078 624.646 710.753 611.16 700.09C620.311 696.043 648.262 684.327 676.548 678.998C712.796 672.169 742.548 668.498 769.548 662.498C774.548 661.386 787.048 645.998 787.048 645.998C787.048 645.998 773.875 657.179 763.548 659.498C739.048 664.998 721.547 662.696 682.548 670.998C657.989 676.226 622.825 687.259 611.62 690.846C609.66 689.458 605.033 686.125 602.048 683.498C589.548 672.498 595.048 622.998 595.048 622.998C595.048 622.998 591.398 652.801 587.048 671.498C586.349 674.502 585.316 678.562 584.663 681.104C568.782 670.627 551.053 660.251 534.548 651.998C514.548 641.998 462.549 630.498 446.048 630.498C438.316 630.498 426.858 632.553 415.548 637.998C402.089 644.478 397.575 654.438 397.548 654.498C397.636 654.4 415.606 634.498 439.048 634.498C458.048 634.498 505.548 649.998 531.548 659.998C550.549 667.306 618.548 709.498 626.048 726.498C627.812 730.501 615.048 797.498 616.548 813.998C616.584 814.39 619.213 804.596 622.46 791.322C621.696 811.542 616.193 958.19 615.048 1014C613.048 1111.5 664.048 1144.5 664.048 1144.5H673.997V1148.5H490.997V1144.5H491.047C491.046 1144.49 490.679 1140.54 490.547 1138C490.519 1137.46 490.504 1136.92 490.501 1136.37L490.502 1135.82C490.496 1136.55 490.511 1137.28 490.548 1138C490.68 1140.54 491.048 1144.5 491.048 1144.5H499.548C499.548 1144.5 499.048 1139.63 499.048 1136.5C499.048 1128.5 502.32 1120.5 502.548 1108C502.647 1102.54 502.073 1095.24 501.606 1090.34C508.875 1098.74 520.048 1109 520.048 1109C520.048 1109 507.041 1089.9 501.548 1080.5C498.505 1075.29 497.048 1074 497.048 1072.5C497.048 1071 501.548 1068 502.548 1056.5C503.548 1045 462.048 974.998 462.048 884.998C462.048 842.603 473.048 794.498 473.048 776.998C473.048 770.507 470.945 766.688 467.048 761.498C463.219 756.399 454.13 751.542 454.048 751.498C454.123 751.562 464.326 760.249 466.048 767.998C466.336 769.294 465.46 777.386 464.071 789.315L463.548 791.498C463.548 791.498 461.047 812.05 447.048 814.998C434.548 817.63 415.941 811.468 401.048 805.998C386.155 800.528 376.048 794.498 366.548 787.998C359.548 783.209 353.376 771.891 349.048 759.498C343.743 744.31 345.326 723.57 345.548 718.498C346.279 701.817 348.238 692.487 353.048 676.498C359.291 655.746 365.725 645.052 376.048 625.998C383.561 612.13 389.398 605.291 397.048 591.498C406.027 575.308 418.048 558.511 418.048 548.998C418.048 538.998 411.136 531.496 407.548 519.998C403.88 508.243 399.104 501.804 399.548 489.498C399.795 482.641 402.955 473.354 404.587 468.977C406.205 466.967 407.915 465.016 410.048 462.498C417.278 453.965 430.048 441.998 430.048 441.998C430.048 441.998 418.548 443.998 410.548 452.998C401.444 463.24 399.118 469.498 391.048 482.498C381.952 497.151 379.076 503.008 370.548 517.998C367.959 522.548 363.173 530.043 359.81 535.234C360.383 533.025 360.941 530.665 361.548 527.998C362.21 525.087 362.254 520.501 361.548 520.498C360.048 520.498 353.882 534.33 348.548 544.998C344.548 552.998 343.548 556.998 336.048 566.998C328.833 576.618 320.048 582.998 309.548 582.998C299.048 582.998 281.772 574.058 264.548 563.998C213.055 533.923 164.883 485.575 151.829 474.592C153.299 474.26 154.852 473.891 156.548 473.498C162.743 472.062 166.282 471.183 172.048 468.498C177.452 465.982 180.301 464.103 185.048 460.498C188.793 457.654 190.856 455.854 193.548 451.998C195.75 448.845 196.963 447.188 198.048 443.498C199.107 439.895 198.418 435.025 198.548 430.498C198.82 420.988 195.065 408.057 195.048 407.998C195.048 407.998 195.048 436.998 189.548 445.998C184.548 454.18 177.345 457.193 168.048 461.998C159.89 466.214 154.097 467.624 146.186 469.364C147.664 468.874 149.188 468.188 151.048 466.998C155.12 464.393 158.216 461.733 160.548 457.498C162.581 453.806 163.507 449.724 163.548 447.498C163.608 444.162 161.898 442.774 160.048 439.998C158.132 437.124 154.548 433.998 154.548 432.998C154.548 431.998 157.234 428.32 157.548 424.998C157.904 421.224 156.781 419.083 155.548 415.498C154.497 412.442 153.662 410.798 152.048 407.998C150.506 405.323 148.041 404.585 148.048 401.498C148.054 398.785 150.1 398.04 151.048 395.498C152.486 391.639 152.346 389.106 152.048 384.998L152.035 384.822C151.781 381.32 151.59 378.686 150.048 375.498C148.24 371.761 146.597 370.151 143.048 367.998C139.444 365.812 136.75 365.818 132.548 365.498C129.038 365.231 128.066 365.413 124.548 365.498C121.815 365.564 119.251 365.595 116.548 365.998C113.066 366.517 111.075 367.203 108.048 368.998C106.381 369.986 104.084 371.967 104.048 371.998C104.11 371.989 108.039 371.441 110.548 370.998C114.282 370.339 121.548 369.498 126.048 369.498C130.548 369.498 139.048 369.498 141.548 371.498C144.103 373.543 143.444 376.281 144.048 379.498C144.734 383.149 144.948 384.784 145.048 388.498C145.153 392.402 144.048 397.998 143.548 400.998C143.215 402.998 144.589 404.25 146.048 405.998C147.826 408.128 149.847 408.805 151.548 410.998C153.261 413.207 154.648 414.704 154.548 417.498C154.463 419.856 153.153 420.914 152.048 422.998C150.526 425.869 148.029 426.784 147.548 429.998C147.375 431.157 147.424 431.833 147.548 432.998C147.764 435.025 148.046 436.222 149.048 437.998C150.269 440.162 151.954 440.591 153.548 442.498C155.076 444.327 157.048 445.115 157.048 447.498C157.048 448.998 154.937 453.1 152.548 455.998C150.433 458.564 148.929 459.839 146.048 461.498C142.837 463.347 140.6 463.446 137.048 464.498C134.142 465.359 132.451 465.629 129.548 466.498C126.59 467.384 121.445 469.695 115.548 468.998C112.538 468.642 109.883 468.071 107.048 466.998C104.19 465.917 101.048 464.852 100.048 463.498C98.0619 460.81 99.1922 458.337 99.0479 454.998C98.8705 450.897 100.082 447.471 99.0479 443.498C98.4535 441.215 98.2625 441.02 97.0479 438.998C95.3358 436.148 93.7033 435.03 91.5479 432.498C89.2138 429.757 86.8234 428.865 85.5479 425.498C84.4389 422.571 84.9604 420.627 85.0479 417.498C85.1555 413.646 86.4003 408.359 87.0918 405.688C87.9995 406.161 88.9827 406.599 90.0479 406.998C93.3846 408.248 99.0479 408.498 99.0479 408.498C99.0479 408.498 95.75 404.889 93.5479 402.998C91.0826 400.881 90.5355 400.588 88.0479 398.498C86.3567 397.077 85.0553 396.613 83.5479 394.998C82.1314 393.481 80.5108 392.021 80.0479 389.998C79.8301 389.046 79.9596 388.876 80.0479 387.498C80.1822 385.399 80.3914 383.996 81.0479 381.998C81.8016 379.704 81.8285 378.804 82.5479 376.498C83.3579 373.902 84.1628 372.07 85.0479 369.498C85.8206 367.253 87.1814 364.086 87.959 362.32C89.3965 362.067 90.9024 361.808 92.5479 361.498C101.206 359.869 105.472 359.517 114.048 357.498C118.935 356.348 126.548 354.498 126.548 354.498C126.548 354.498 110.015 353.228 99.5479 354.498C93.4275 355.24 89.8373 355.379 84.0479 357.498C78.3845 359.571 75.9181 363.117 70.0479 364.498C61.548 366.498 52.4743 365.914 41.5479 365.498C32.9428 365.17 28.0866 364.611 19.5479 363.498C13.8791 362.759 5.63203 360.521 5.54785 360.498C5.63783 360.448 17.0911 354.1 28.0479 348.498C41.4785 341.632 48.7793 339.392 63.0479 334.498C75.7852 330.13 84.5764 328.113 97.5479 324.498C113.058 320.175 119.967 319.059 135.548 314.998C141.464 313.456 150.046 311.276 155.036 310.013C152.869 313.248 149.799 314.172 149.048 317.998C148.355 321.531 149.842 323.605 151.048 326.998C152.452 330.949 156.048 336.498 156.048 336.498V320.498C156.104 320.446 162.211 314.789 164.048 309.998C165.029 307.438 165.367 303.614 165.484 301.514C172.068 305.497 179.048 305.498 179.048 305.498C179.048 305.498 157.548 293.498 160.048 276.998ZM491.196 1127.76C490.967 1129.36 490.781 1130.92 490.659 1132.44L490.579 1133.58C490.69 1131.7 490.91 1129.76 491.196 1127.76ZM658.018 1127.39C658.052 1127.43 658.087 1127.47 658.121 1127.51C658.1 1127.49 658.078 1127.46 658.057 1127.44L658.018 1127.39ZM492.21 1121.61H492.209H492.21ZM654.289 1122.84C654.404 1122.98 654.52 1123.12 654.635 1123.27C654.532 1123.14 654.428 1123.01 654.325 1122.88L654.289 1122.84ZM493.789 1112.4H493.788H493.789ZM494.528 1106.83H494.527H494.528ZM495.048 1096.5C495.071 1098.03 495.045 1099.53 494.979 1101.01C495.045 1099.53 495.07 1098.03 495.047 1096.5H495.048ZM493.982 1055.59C494.025 1055.92 494.048 1056.23 494.048 1056.5C494.048 1056.91 494.024 1057.33 493.98 1057.74C493.937 1058.16 493.872 1058.58 493.79 1059C493.544 1060.26 493.14 1061.52 492.656 1062.73C492.495 1063.14 492.325 1063.54 492.149 1063.94C491.974 1064.33 491.792 1064.72 491.607 1065.1C490.315 1067.78 488.88 1070.09 488.306 1071.51C488.142 1071.91 488.048 1072.25 488.048 1072.5C488.048 1072.54 488.05 1072.58 488.056 1072.62C488.222 1073.98 490.932 1077.49 494.124 1081.37C494.304 1083.42 494.749 1088.74 494.952 1093.41L494.994 1094.48C494.819 1089.57 494.317 1083.58 494.123 1081.37C490.828 1077.36 488.047 1073.75 488.047 1072.5C488.047 1070.5 494.047 1063.11 494.047 1056.5C494.047 1056.32 494.037 1056.12 494.018 1055.91L493.982 1055.59ZM477.777 1010.97C480.238 1017.63 482.622 1023.79 484.771 1029.31C485.845 1032.07 486.86 1034.67 487.798 1037.09C489.673 1041.94 491.235 1046.07 492.329 1049.35C492.466 1049.76 492.595 1050.16 492.717 1050.54C492.96 1051.31 493.173 1052.02 493.354 1052.67C493.443 1053 493.525 1053.32 493.599 1053.62C493.709 1054.06 493.799 1054.48 493.869 1054.86L493.933 1055.24C492.949 1048.98 485.776 1032.62 477.777 1010.97ZM463.324 966.135C464.398 970.184 465.532 974.178 466.704 978.1C466.997 979.08 467.292 980.056 467.59 981.027C468.185 982.97 468.789 984.893 469.398 986.795C469.703 987.746 470.01 988.691 470.317 989.631C471.548 993.391 472.798 997.061 474.048 1000.62C470.298 989.935 466.547 978.281 463.324 966.135ZM639.402 958.524C639.566 958.577 639.726 958.615 639.88 958.64C639.726 958.615 639.566 958.577 639.402 958.524ZM638.081 957.883C638.245 957.985 638.406 958.08 638.563 958.163L638.851 958.307C638.602 958.191 638.346 958.048 638.081 957.883ZM621.516 937.521C624.223 941.729 632.029 953.46 637.34 957.38C632.029 953.461 624.223 941.73 621.515 937.521L621.516 937.521ZM458.952 947.605C459.379 949.692 459.829 951.772 460.298 953.842C459.946 952.289 459.605 950.731 459.276 949.169L458.952 947.605ZM457.187 938.175C457.453 939.752 457.735 941.327 458.029 942.899C458.127 943.423 458.227 943.947 458.328 944.47L458.636 946.039C458.116 943.426 457.63 940.804 457.186 938.175H457.187ZM455.201 923.947C455.486 926.583 455.821 929.221 456.198 931.856C455.896 929.748 455.621 927.639 455.378 925.529L455.201 923.947ZM454.394 914.473C454.458 915.523 454.532 916.574 454.613 917.626C454.654 918.152 454.697 918.679 454.742 919.205L454.883 920.785C454.686 918.678 454.522 916.573 454.393 914.473H454.394ZM454.048 903.498C454.048 905.057 454.069 906.62 454.112 908.187L454.162 909.755C454.086 907.662 454.047 905.576 454.047 903.498H454.048ZM455.705 868.62C455.517 871.021 455.341 873.397 455.18 875.738C454.964 878.861 454.774 881.922 454.614 884.9C454.574 885.645 454.536 886.385 454.5 887.119C454.428 888.587 454.364 890.032 454.308 891.453C454.587 884.349 455.077 876.624 455.704 868.62H455.705ZM392.26 809.892C392.948 810.212 393.632 810.524 394.313 810.828C394.995 811.132 395.675 811.429 396.355 811.721C402.141 814.198 407.988 816.272 415.548 818.998C418.174 819.945 420.867 820.889 423.602 821.8C425.424 822.407 427.266 822.999 429.118 823.569C424.487 822.145 419.925 820.577 415.547 818.998C406.653 815.791 400.13 813.486 393.288 810.366L392.26 809.892ZM386.973 807.292H386.972H386.973ZM367.699 795.398C369.619 796.836 371.496 798.144 373.277 799.321C374.346 800.028 375.38 800.687 376.368 801.3C377.686 802.116 378.921 802.85 380.048 803.498C380.458 803.734 380.862 803.966 381.263 804.192C382.063 804.646 382.846 805.082 383.613 805.502C382.462 804.872 381.276 804.206 380.047 803.498C376.949 801.715 373.025 799.294 368.845 796.246L367.699 795.398ZM351.75 780.302C353.141 782.026 354.601 783.668 356.102 785.229C356.289 785.425 356.477 785.618 356.666 785.811C359.498 788.699 362.463 791.301 365.38 793.612L366.543 794.521C361.514 790.649 356.27 785.904 351.75 780.302ZM512.548 734.998C512.62 735.096 528.048 755.941 528.048 761.498C528.048 766.491 524.558 786.441 524.548 786.498C524.573 786.42 531.509 764.961 531.048 761.498C530.05 754.017 512.635 735.093 512.548 734.998ZM347.355 774.176C347.806 774.891 348.272 775.594 348.749 776.286C348.272 775.594 347.806 774.891 347.355 774.176ZM343.93 767.501C344.562 769.124 345.267 770.631 346.048 771.998H346.047C345.422 770.904 344.846 769.721 344.317 768.461L343.93 767.501ZM342.546 763.393C342.755 764.111 342.975 764.814 343.205 765.499C342.975 764.814 342.755 764.111 342.546 763.393ZM341.421 758.902H341.42H341.421ZM339.87 749.049C340.103 751.195 340.389 753.294 340.734 755.325C340.389 753.294 340.103 751.195 339.87 749.049ZM339.041 730.425C339.012 733.548 339.057 736.703 339.189 739.827C339.076 737.149 339.026 734.449 339.032 731.765L339.041 730.425ZM339.267 722.498L339.209 723.801C339.227 723.365 339.245 722.931 339.266 722.498L339.331 721.207C339.308 721.636 339.287 722.066 339.267 722.498ZM345.375 683.124C345.237 683.612 345.102 684.098 344.971 684.586C344.445 686.535 343.967 688.497 343.494 690.604C343.258 691.659 343.022 692.749 342.783 693.893C342.544 695.036 342.301 696.232 342.048 697.498C341.109 702.198 340.223 708.764 339.658 716.162L339.481 718.658C340.027 710.246 341.003 702.721 342.047 697.498C343.185 691.802 344.13 687.512 345.374 683.124H345.375ZM839.048 671.998C839.048 671.998 836.548 685.998 831.048 691.498C825.988 696.558 817.615 703.939 817.548 703.998C817.648 703.936 832.058 694.989 835.048 692.498C840.12 688.27 839.05 672.03 839.048 671.998ZM608.048 697.665C607.646 697.356 607.24 697.046 606.832 696.735C607.24 697.046 607.645 697.355 608.047 697.664V694.283L605.597 695.8L608.048 694.282V697.665ZM353.651 661.263C353.367 661.839 353.084 662.425 352.803 663.021C352.662 663.319 352.521 663.62 352.381 663.924C351.259 666.355 350.155 668.986 349.048 671.998C348.825 672.604 348.611 673.194 348.404 673.771C348.198 674.347 347.999 674.91 347.808 675.461L347.252 677.083C347.787 675.492 348.379 673.815 349.047 671.998C350.569 667.856 352.085 664.436 353.651 661.263ZM880.745 664.433C880.901 664.587 881.057 664.741 881.211 664.896C881.057 664.741 880.901 664.587 880.745 664.433ZM404.177 569.82C401.219 573.904 397.768 578.49 394.606 583.146C394.319 583.569 394.034 583.992 393.752 584.416C392.906 585.689 392.086 586.964 391.31 588.232C391.051 588.655 390.797 589.077 390.548 589.498C389.812 590.743 389.103 591.959 388.417 593.148C388.074 593.743 387.738 594.332 387.406 594.914C386.744 596.079 386.103 597.22 385.481 598.342C385.171 598.903 384.865 599.458 384.563 600.01C382.755 603.317 381.106 606.463 379.536 609.554C379.013 610.584 378.499 611.607 377.99 612.629C375.448 617.737 373.054 622.787 370.438 628.268C369.915 629.364 369.384 630.477 368.84 631.611C367.752 633.88 366.618 636.234 365.412 638.703C364.809 639.938 364.189 641.202 363.548 642.498C360.703 648.251 358.185 652.614 355.824 657.045L354.945 658.712C357.559 653.683 360.346 648.97 363.547 642.498C373.805 621.755 378.774 609.42 390.547 589.498C394.528 582.761 399.874 575.761 404.177 569.82ZM308.984 589.979C309.349 589.992 309.703 589.997 310.047 589.997V589.998C309.875 589.998 309.701 589.996 309.523 589.993L308.984 589.979ZM305.439 589.696C306.072 589.771 306.685 589.833 307.276 589.88L307.86 589.922C307.091 589.871 306.283 589.796 305.439 589.696ZM272.64 579.24C275.238 580.516 277.86 581.687 280.461 582.747C281.039 582.983 281.616 583.213 282.191 583.438C285.069 584.561 287.909 585.548 290.65 586.392C291.199 586.56 291.743 586.723 292.283 586.88C295.523 587.824 298.604 588.561 301.423 589.081L302.81 589.322C294.626 587.981 283.918 584.672 273.506 579.662L272.64 579.24ZM251.486 566.057C253.745 567.664 255.92 569.183 258 570.606C258.693 571.081 259.376 571.545 260.048 571.998C260.581 572.357 261.118 572.712 261.66 573.062C263.015 573.935 264.397 574.778 265.798 575.59C266.078 575.752 266.359 575.913 266.641 576.073C267.204 576.393 267.77 576.707 268.339 577.017C268.623 577.171 268.908 577.324 269.193 577.477C269.764 577.781 270.337 578.08 270.912 578.374L271.774 578.812C267.741 576.79 263.777 574.514 260.047 571.998C257.359 570.185 254.498 568.2 251.486 566.057ZM410.943 559.144C410.505 560.194 409.848 561.403 409.024 562.742C408.841 563.04 408.65 563.343 408.451 563.653C408.053 564.273 407.626 564.918 407.172 565.584L406.472 566.599C408.504 563.679 410.115 561.128 410.943 559.144ZM226.438 547.259C232.772 552.226 238.824 556.824 244.467 560.975C238.824 556.824 232.772 552.226 226.438 547.259ZM406.931 527.78C407.047 528.241 407.157 528.698 407.26 529.151C407.363 529.604 407.459 530.054 407.548 530.498C408.298 534.248 408.978 537.928 409.561 541.405C409.755 542.564 409.938 543.701 410.11 544.811C410.712 548.694 411.17 552.242 411.442 555.245C411.481 555.674 411.517 556.092 411.548 556.498C411.572 556.811 411.542 557.161 411.463 557.545C411.423 557.737 411.371 557.938 411.308 558.146C411.498 557.519 411.583 556.967 411.547 556.498C411.047 549.998 409.547 540.498 407.547 530.498C407.414 529.831 407.264 529.154 407.1 528.469L406.931 527.78ZM354.862 550.578C354.787 550.674 354.711 550.77 354.636 550.865C354.711 550.769 354.788 550.673 354.863 550.576L354.862 550.578ZM186.015 513.677C190 517.174 193.974 520.602 197.913 523.948C198.898 524.785 199.88 525.616 200.86 526.442C203.8 528.92 206.717 531.349 209.602 533.724C201.91 527.392 193.985 520.67 186.015 513.677ZM404.767 520.669C405.442 522.6 406.051 524.518 406.564 526.388L406.752 527.086C406.202 524.997 405.526 522.842 404.767 520.669ZM401.373 512.003C401.779 512.95 402.18 513.906 402.57 514.868C402.18 513.907 401.779 512.951 401.373 512.004V512.003ZM400.14 509.196H400.139H400.14ZM166.122 495.666C168.88 498.255 171.59 500.767 174.048 502.998H174.047C171.589 500.768 168.88 498.255 166.122 495.666ZM396.424 501.382V501.383V501.382ZM106.593 475.326C107.598 475.663 108.652 475.919 109.798 476.121C110.657 476.273 111.568 476.395 112.548 476.498H112.547C110.259 476.257 108.352 475.916 106.593 475.326ZM131.148 475.464C131.853 475.583 132.545 475.691 133.202 475.782C133.859 475.873 134.482 475.947 135.048 475.998C135.299 476.021 135.546 476.042 135.791 476.061C136.769 476.136 137.7 476.182 138.595 476.201C137.476 476.177 136.301 476.111 135.047 475.998C133.914 475.896 132.557 475.702 131.147 475.464H131.148ZM139.912 476.211V476.21V476.211ZM119.894 475.974C120.173 475.92 120.459 475.867 120.753 475.812C120.459 475.867 120.173 475.92 119.894 475.974ZM95.0801 465.619C95.8873 467.203 96.746 468.373 97.876 469.525C98.0014 469.653 98.1303 469.781 98.2627 469.909C98.7928 470.422 99.3816 470.94 100.048 471.498C100.551 471.92 101.043 472.306 101.527 472.659C101.649 472.748 101.769 472.834 101.89 472.919C102.13 473.088 102.37 473.248 102.608 473.401C102.728 473.478 102.847 473.553 102.966 473.626C103.561 473.991 104.154 474.311 104.755 474.592C103.192 473.861 101.684 472.87 100.047 471.498C97.8815 469.684 96.5369 468.293 95.3506 466.132L95.0801 465.619ZM92.9355 452.418C92.9333 453.437 92.9574 454.478 93.0479 455.498C93.0675 455.72 93.0849 455.937 93.1006 456.148C93.2262 457.843 93.243 459.237 93.4375 460.632C93.4861 460.98 93.5458 461.329 93.6211 461.683C93.8093 462.567 94.0951 463.481 94.5479 464.498H94.5469C93.0982 461.243 93.3614 459.047 93.0469 455.498C92.9565 454.478 92.9333 453.437 92.9355 452.418ZM92.7461 445.622C92.8726 446.153 92.9372 446.788 92.9658 447.497C92.974 447.7 92.9793 447.908 92.9824 448.122C92.9886 448.55 92.986 449 92.9795 449.467C93.0007 447.952 92.981 446.609 92.7461 445.622ZM90.5332 441.862C90.9078 442.284 91.263 442.717 91.5986 443.22C91.6825 443.346 91.7652 443.476 91.8467 443.611C92.0096 443.882 92.1679 444.174 92.3213 444.495C92.3979 444.655 92.4736 444.823 92.5479 444.998H92.5469C91.9522 443.594 91.2822 442.705 90.5332 441.862ZM85.498 435.367C85.8011 435.838 86.1022 436.286 86.4209 436.746C86.8988 437.436 87.418 438.151 88.0479 438.998C88.2754 439.304 88.4975 439.584 88.7148 439.844C88.4974 439.583 88.2745 439.304 88.0469 438.998C87.2069 437.868 86.5644 436.975 85.9531 436.061L85.498 435.367ZM81.791 429.114C82.112 429.719 82.4552 430.313 82.8281 430.945C83.2009 431.577 83.6046 432.246 84.0479 432.998H84.0469C83.1603 431.494 82.4328 430.323 81.791 429.114ZM339.179 373.275C337.716 375.27 336.173 377.441 334.548 379.805C333.735 380.987 332.902 382.217 332.048 383.498C320.515 400.797 303.081 427.539 299.291 433.356C303.081 427.539 320.514 400.797 332.047 383.498C334.182 380.295 336.188 377.409 338.066 374.805L339.179 373.275ZM80.8838 427.225H80.8828H80.8838ZM78.7686 414.52C78.6399 415.266 78.5591 416.065 78.5479 416.998C78.5431 417.395 78.5474 417.771 78.5605 418.131C78.5671 418.311 78.5759 418.486 78.5869 418.658C78.6748 420.035 78.9019 421.189 79.252 422.445C79.4706 423.23 79.7375 424.055 80.0479 424.998H80.0469C79.0533 421.979 78.5086 420.176 78.5469 416.998C78.5581 416.065 78.6399 415.266 78.7686 414.52ZM267.45 424.646C267.93 424.838 268.41 425.022 268.889 425.205C268.41 425.022 267.93 424.838 267.45 424.646ZM264.969 423.623C265.446 423.827 265.923 424.027 266.399 424.223C265.923 424.027 265.446 423.827 264.969 423.623ZM255.676 419.084C255.991 419.259 256.307 419.433 256.623 419.604C256.307 419.433 255.991 419.259 255.676 419.084ZM80.2109 399.896C80.3808 400.121 80.5596 400.346 80.75 400.573C80.9403 400.801 81.142 401.03 81.3574 401.267C81.5729 401.503 81.8026 401.746 82.0479 401.998C82.0922 402.044 82.1386 402.089 82.1836 402.134C81.6422 403.839 80.6273 407.115 80.0479 409.498C79.9597 409.861 79.8706 410.204 79.7822 410.531C79.5172 411.514 79.2586 412.363 79.0469 413.217L78.9443 413.645C79.2367 412.355 79.65 411.131 80.0469 409.498C80.6263 407.115 81.6412 403.839 82.1826 402.134C82.1375 402.088 82.0914 402.044 82.0469 401.998C81.3108 401.241 80.7196 400.572 80.21 399.896H80.2109ZM79.2812 398.502H79.2803H79.2812ZM77.8838 395.591C77.934 395.723 77.9887 395.859 78.0479 395.998C78.2551 396.484 78.4562 396.927 78.6592 397.341L78.8623 397.744C78.5889 397.218 78.3231 396.646 78.0469 395.998C77.9876 395.859 77.933 395.724 77.8828 395.591H77.8838ZM76.6855 387.312C76.7852 388.127 76.9149 388.982 77.0479 389.998C77.2241 391.345 77.2185 392.372 77.3486 393.408C77.2185 392.372 77.2231 391.345 77.0469 389.998C76.9582 389.32 76.8715 388.715 76.7939 388.145L76.6855 387.312ZM76.9287 378.745C76.7596 380.027 76.6561 381.359 76.5479 382.998C76.4803 384.021 76.4837 384.88 76.5332 385.697C76.4836 384.88 76.4793 384.021 76.5469 382.998C76.6551 381.359 76.7595 380.027 76.9287 378.745ZM509.048 380.498L504.048 376.498L510.048 382.498L509.048 376.498V380.498ZM79.0254 370.701C78.7352 371.423 78.4711 372.139 78.252 372.822C78.1785 373.051 78.1105 373.277 78.0479 373.498C77.7918 374.401 77.5853 375.212 77.416 375.979C77.3737 376.171 77.3338 376.361 77.2959 376.548C77.258 376.735 77.2223 376.92 77.1885 377.104L77.0918 377.652C77.3035 376.378 77.5988 375.079 78.0469 373.498C78.2964 372.618 78.6379 371.665 79.0254 370.701ZM345.226 365.419C344 366.93 342.696 368.588 341.313 370.412L340.261 371.812C342.395 368.949 344.349 366.471 346.13 364.313L345.226 365.419ZM498.048 371.498C498.048 371.498 494.437 360.943 483.548 362.498C469.548 364.498 465.547 365.498 452.548 366.498C437.283 367.672 410.209 367.996 410.048 367.998C410.186 368.018 430.623 370.993 452.548 369.498C467.629 368.47 486.379 363.164 491.048 365.498C493.048 366.499 498.048 371.498 498.048 371.498ZM26.7568 371.104C28.5779 371.299 30.3275 371.405 32.1641 371.461C30.7865 371.419 29.4579 371.349 28.1113 371.234L26.7568 371.104ZM25.376 370.94H25.375H25.376ZM52.9639 370.651C52.0731 370.769 51.1553 370.88 50.2148 370.981C51.1553 370.88 52.0731 370.769 52.9639 370.651ZM23.2207 370.625L23.9521 370.74C23.7105 370.704 23.4664 370.665 23.2197 370.625L22.4727 370.5C22.7248 370.544 22.9742 370.585 23.2207 370.625ZM1.11133 363.328C1.1709 363.408 1.23263 363.486 1.29688 363.562C1.42555 363.716 1.56384 363.863 1.71289 364.005C1.78727 364.076 1.86448 364.145 1.94434 364.214C2.26423 364.489 2.62922 364.747 3.04785 364.998C3.12604 365.045 3.20763 365.092 3.29297 365.14C5.93657 366.603 11.9496 368.216 17.5479 369.498H17.5469C11.7677 368.174 5.54683 366.498 3.04688 364.998C2.20979 364.496 1.5873 363.967 1.11035 363.328H1.11133ZM81.5625 365.25C80.8832 366.565 80.0738 368.214 79.3652 369.881C80.0737 368.214 80.8823 366.566 81.5615 365.251L81.5625 365.25ZM69.583 367.604C69.4125 367.664 69.2411 367.722 69.0703 367.78C69.503 367.632 69.9355 367.479 70.3662 367.318L69.583 367.604ZM538.048 344.498C538.048 344.498 529.828 350.525 524.048 353.498C520.628 355.257 517.548 355.998 515.048 357.498C511.71 359.501 510.058 365.46 510.048 365.498C510.076 365.453 513.034 360.837 516.048 359.498C520.547 357.498 522.349 356.817 526.048 354.498C531.216 351.258 538.048 344.498 538.048 344.498ZM611.337 362.367C611.359 362.841 611.376 363.316 611.391 363.794C611.376 363.316 611.359 362.841 611.337 362.367ZM366.56 346.71C362.268 348.694 359.102 350.444 358.048 351.498C357.298 352.248 356.395 353.121 355.334 354.18C353.301 356.208 350.684 358.919 347.438 362.751C352.379 356.919 355.86 353.685 358.047 351.498C359.101 350.444 362.267 348.695 366.56 346.71ZM0.496094 362.277L0.631836 362.559C0.551287 362.402 0.47854 362.238 0.408203 362.068C0.437392 362.139 0.465214 362.209 0.496094 362.277ZM0.0478516 360.998H0.046875H0.0478516ZM0.100586 359.943C0.0437288 360.137 0.00978818 360.322 0 360.498C0.00980286 360.322 0.0436971 360.137 0.100586 359.943ZM1.41992 357.68C1.32789 357.795 1.23907 357.91 1.1543 358.024C0.899564 358.367 0.67924 358.702 0.500977 359.023C0.738517 358.595 1.05049 358.143 1.41895 357.68H1.41992ZM2.67383 356.264C2.78894 356.145 2.90602 356.025 3.02539 355.906L3.02637 355.905C2.90667 356.025 2.78925 356.144 2.67383 356.264ZM6.11914 353.16C5.328 353.796 4.52178 354.487 3.76465 355.194C4.5218 354.487 5.328 353.796 6.11914 353.16ZM33.1729 338.081C32.4747 338.38 31.7665 338.686 31.0479 338.998C30.422 339.27 29.8052 339.543 29.1992 339.817C25.5619 341.461 22.2852 343.129 19.3926 344.719C17.9463 345.513 16.596 346.289 15.3447 347.031C14.0935 347.774 12.941 348.484 11.8906 349.149C11.5403 349.371 11.2015 349.588 10.874 349.8C10.2193 350.222 9.6103 350.623 9.04785 350.998C8.83657 351.139 8.61348 351.291 8.38184 351.454L7.66211 351.973C8.15647 351.609 8.6243 351.28 9.04688 350.998C13.5468 347.998 21.0287 343.354 31.0469 338.998C31.7655 338.686 32.4737 338.38 33.1719 338.081H33.1729ZM373.249 343.808C371.31 344.602 369.465 345.394 367.769 346.158C369.465 345.394 371.31 344.602 373.249 343.808ZM350.048 298.998C350.048 298.998 346.264 311.348 345.048 319.498C343.613 329.117 344.043 344.355 344.047 344.497V344.498C344.046 344.484 343.606 329.158 345.047 319.498C346.261 311.36 350.036 299.036 350.048 298.998ZM388.425 338.297C383.874 339.728 379.158 341.439 374.825 343.17C378.738 341.607 382.964 340.06 387.098 338.721L388.425 338.297ZM340.071 263.808C343.934 272.036 350.374 282.334 360.548 289.998C369.112 296.449 377.405 301.689 385.755 305.741L386.548 310.498C386.548 310.498 378.548 314.998 367.048 321.998C358.662 327.103 347.622 337.925 347.548 337.998C347.549 337.972 348.254 326.086 349.048 318.498C349.951 309.874 352.548 296.498 352.548 296.498C352.548 296.498 347.84 296.498 339.548 300.998C334.558 303.706 328.105 309.943 328.048 309.998C328.058 309.948 330.721 296.373 333.548 287.998C335.983 280.783 341.548 267.498 341.548 267.498L340.071 263.808ZM428.56 329.945C425.117 332.078 406.984 332.811 391.048 337.498H391.047C406.984 332.811 425.118 332.078 428.56 329.945ZM48.376 331.97C47.7931 332.187 47.2059 332.408 46.6133 332.633C45.4279 333.083 44.2216 333.549 42.9893 334.035C44.8374 333.307 46.6265 332.621 48.375 331.97H48.376ZM60.1797 327.857C58.5231 328.397 56.8682 328.952 55.1963 329.527C56.8682 328.952 58.5231 328.397 60.1797 327.857ZM429.26 328.106C429.276 328.343 429.277 328.561 429.259 328.759C429.25 328.858 429.236 328.951 429.218 329.039C429.209 329.083 429.198 329.126 429.187 329.167C429.163 329.249 429.135 329.326 429.102 329.396C429.085 329.432 429.067 329.466 429.048 329.498H429.047C429.24 329.176 429.3 328.697 429.259 328.106H429.26ZM428.725 325.576C428.821 325.893 428.908 326.201 428.981 326.497C428.908 326.201 428.821 325.893 428.725 325.576ZM107.288 314.04C105.505 314.513 103.737 314.988 101.993 315.463C97.6336 316.651 93.4292 317.839 89.5479 318.998H89.5469C94.2048 317.608 99.3277 316.173 104.626 314.75L107.288 314.04ZM421.816 315.799C422.729 315.877 423.647 315.943 424.57 315.998C425.139 317.098 426.084 318.981 426.979 321.015C426.084 318.981 425.138 317.098 424.569 315.998C423.646 315.943 422.728 315.877 421.815 315.799H421.816ZM334.047 267.498H334.048C334.048 267.498 327.966 279.676 325.548 287.998C322.371 298.931 322.05 317.84 322.048 317.997L322.047 317.998C322.047 317.998 322.357 298.976 325.547 287.998C327.96 279.692 334.023 267.545 334.047 267.498ZM400.428 313.487H400.427H400.428ZM509.4 312.405L509.563 313.699C509.448 312.831 509.346 311.973 509.255 311.132L509.4 312.405ZM330.429 311.011C329.681 311.6 328.955 312.183 328.263 312.745C328.955 312.183 329.681 311.6 330.429 311.011ZM508.926 307.574C508.976 308.221 509.034 308.886 509.098 309.566C509.034 308.886 508.976 308.221 508.926 307.574ZM468.048 27.998C468.137 28.1033 487.579 51.0136 501.048 69.998C512.331 85.9011 528.048 111.998 528.048 111.998C528.048 111.998 518.048 130.831 520.548 132.498C523.051 134.162 547.048 117.498 547.048 117.498C547.174 117.574 569.314 131.003 585.548 135.998C605.048 141.998 623.548 141.998 623.548 141.998L604.048 148.998L569.548 155.998C569.665 156.038 585.415 161.322 593.548 163.998C602.186 166.841 615.048 170.498 615.048 170.498C615.048 170.498 605.542 189.118 598.548 199.998C589.568 213.966 576.109 235.401 576.048 235.498C576.056 235.527 576.976 238.894 583.548 241.498C597.708 247.108 630.548 244.998 630.548 244.998C630.548 244.998 609.255 256.955 594.548 261.998C577.655 267.79 546.319 274.046 544.164 274.474C546.829 271.72 548.039 270.011 548.048 269.998C547.978 270.047 512.515 294.822 479.048 301.998C457.432 306.632 443.876 309.779 427.548 308.498C355.137 302.819 335.097 250.128 335.048 249.998C335.055 250.031 336.25 255.318 339.462 262.476C337.814 262.021 312.42 255.242 279.548 259.498C252.628 262.984 229.186 273.933 229.048 273.998C229.125 273.901 244.585 254.397 259.548 213.998C267.558 192.371 279.048 164.293 281.548 161.998C284.054 159.702 336.798 149.498 339.048 144.998C340.546 141.997 324.437 127.497 307.048 103.998C295.402 88.2604 275.142 68.5893 275.048 68.498C275.262 68.5048 322.144 69.9889 364.048 65.998C406.048 61.9981 449.39 59.1121 452.048 59.998C455.047 60.9978 456.549 61.4987 466.048 70.998C473.066 78.0159 478.548 89.4266 481.048 87.998C483.547 86.567 478.548 67.9259 476.548 58.498C473.987 46.4262 468.071 28.0705 468.048 27.998ZM523.305 306.436C522.315 306.899 521.323 307.38 520.349 307.866C521.323 307.38 522.315 306.899 523.305 306.436ZM540.646 300.464C539.134 300.803 537.653 301.191 536.193 301.616C535.707 301.758 535.223 301.904 534.741 302.054C532.814 302.652 530.923 303.309 529.048 303.998C528.375 304.246 527.677 304.52 526.964 304.815C527.677 304.52 528.374 304.246 529.047 303.998C532.562 302.705 536.136 301.526 539.893 300.638L540.646 300.464ZM340.328 304.035C340.295 304.054 340.262 304.075 340.229 304.094C340.263 304.074 340.297 304.053 340.331 304.033L340.328 304.035ZM544.496 299.723H544.495H544.496ZM551.833 299.023C550.701 299.058 549.591 299.125 548.5 299.223C548.227 299.247 547.956 299.274 547.686 299.302C547.415 299.33 547.146 299.36 546.878 299.392L546.077 299.491C547.937 299.245 549.852 299.083 551.833 299.023ZM514.483 295.462C512.595 296.415 510.616 297.363 508.544 298.298L509.842 297.705C511.446 296.964 512.993 296.214 514.483 295.462ZM159.646 296.48C159.732 296.586 159.819 296.691 159.907 296.795C159.932 297.192 159.95 297.609 159.96 298.035C159.95 297.609 159.932 297.193 159.907 296.796C159.819 296.692 159.732 296.587 159.646 296.48ZM156.564 291.49C156.797 292.004 157.043 292.499 157.301 292.976C157.387 293.135 157.474 293.291 157.562 293.446C158.164 294.499 158.824 295.458 159.528 296.335C158.41 294.942 157.402 293.338 156.564 291.49ZM519.347 292.89C518.205 293.523 517.024 294.156 515.804 294.787C517.024 294.155 518.205 293.522 519.348 292.889L519.347 292.89ZM522.521 291.072C522.179 291.274 521.834 291.476 521.485 291.678L520.428 292.283C521.141 291.879 521.838 291.475 522.521 291.072ZM154.599 285.046C154.876 286.588 155.252 288.014 155.707 289.333C155.772 289.521 155.839 289.708 155.907 289.892C155.976 290.076 156.046 290.258 156.117 290.438L156.336 290.971C155.59 289.216 154.995 287.25 154.599 285.046ZM527.35 288.072C526.44 288.666 525.497 289.266 524.52 289.867L523.531 290.469C524.865 289.665 526.137 288.864 527.35 288.072ZM530.811 285.725C530.45 285.979 530.082 286.234 529.709 286.49C530.082 286.234 530.45 285.979 530.811 285.725ZM154.052 278.007C154.049 278.17 154.048 278.334 154.048 278.498C154.048 280.089 154.134 281.587 154.298 282.996L154.386 283.694C154.165 282.084 154.047 280.355 154.047 278.498C154.047 278.334 154.048 278.17 154.051 278.007H154.052ZM227.781 267.452C223.791 275.577 221.092 280.91 221.048 280.997L221.047 280.998C221.047 280.998 223.758 275.644 227.781 267.452ZM228.044 278.46C227.666 278.593 227.299 278.719 226.947 278.844C227.299 278.719 227.666 278.593 228.044 278.46ZM154.302 274.606C154.26 274.927 154.224 275.248 154.192 275.57C154.224 275.248 154.26 274.927 154.302 274.606ZM561.443 274.999C560.959 275.107 560.48 275.212 560.005 275.316C560.48 275.212 560.961 275.106 561.445 274.998L561.443 274.999ZM241.558 273.957C240.842 274.182 240.138 274.405 239.445 274.627C240.159 274.398 240.886 274.167 241.625 273.936L241.558 273.957ZM158.485 261.978C156.867 265.027 155.569 268.313 154.805 271.756L154.609 272.699C155.336 268.913 156.719 265.305 158.484 261.979L158.485 261.978ZM249.852 271.457C248.596 271.819 247.356 272.183 246.137 272.549C247.356 272.183 248.596 271.819 249.852 271.457ZM576.894 271.372C575.541 271.707 574.198 272.035 572.87 272.354C574.198 272.035 575.541 271.707 576.894 271.372ZM253.211 270.506C252.836 270.61 252.462 270.717 252.089 270.821C252.479 270.712 252.87 270.6 253.263 270.491L253.211 270.506ZM256.836 269.531C256.452 269.632 256.067 269.731 255.684 269.833C256.067 269.731 256.452 269.632 256.836 269.531ZM586.143 268.998C585.89 269.065 585.638 269.13 585.386 269.197C585.638 269.13 585.892 269.065 586.145 268.997L586.143 268.998ZM262.698 268.066C261.93 268.248 261.161 268.433 260.392 268.623C261.161 268.433 261.93 268.248 262.698 268.066ZM265.165 267.498C264.65 267.613 264.135 267.73 263.618 267.85C264.135 267.73 264.65 267.613 265.165 267.498ZM270.342 266.42C269.034 266.671 267.711 266.943 266.379 267.231C267.718 266.941 269.048 266.668 270.361 266.416L270.342 266.42ZM330.942 266.799C331.216 266.855 331.473 266.908 331.712 266.959C331.46 266.905 331.188 266.849 330.896 266.79L330.942 266.799ZM252.547 213.998H252.548C245.118 231.645 234.811 253.126 228.039 266.927C234.811 253.126 245.117 231.645 252.547 213.998ZM327.085 266.087C327.699 266.19 328.276 266.29 328.814 266.389C328.276 266.29 327.699 266.19 327.085 266.087ZM276.191 265.427C274.715 265.641 273.203 265.892 271.666 266.173C273.203 265.892 274.715 265.641 276.191 265.427ZM325.214 265.784C325.477 265.825 325.734 265.866 325.986 265.906C325.715 265.863 325.438 265.819 325.154 265.775L325.214 265.784ZM322.123 265.343C322.443 265.385 322.757 265.429 323.065 265.472C322.757 265.429 322.443 265.385 322.123 265.343ZM316.866 264.738C317.186 264.77 317.501 264.803 317.812 264.836C317.501 264.803 317.186 264.77 316.866 264.738ZM282.504 264.698C282.283 264.719 282.062 264.74 281.841 264.762C282.065 264.74 282.288 264.718 282.511 264.697L282.504 264.698ZM314.914 264.558C315.375 264.598 315.828 264.64 316.274 264.683C315.828 264.64 315.375 264.598 314.914 264.558ZM312.873 264.393C313.455 264.436 314.027 264.483 314.588 264.53C314.027 264.483 313.455 264.436 312.873 264.393ZM310.81 264.251C311.511 264.295 312.199 264.342 312.873 264.393C312.181 264.341 311.475 264.293 310.755 264.248L310.81 264.251ZM290.781 264.113C289.517 264.174 288.233 264.249 286.93 264.339C288.233 264.249 289.517 264.174 290.781 264.113ZM306.835 264.049C306.658 264.042 306.48 264.033 306.301 264.026C306.48 264.033 306.658 264.042 306.835 264.049ZM293.954 263.988C293.885 263.99 293.816 263.992 293.747 263.994C293.816 263.992 293.885 263.99 293.954 263.988ZM303.921 263.953C304.049 263.956 304.176 263.96 304.304 263.963C304.176 263.96 304.049 263.956 303.921 263.953ZM296.009 263.938C298.162 263.895 300.246 263.892 302.255 263.922C300.246 263.892 298.162 263.895 296.009 263.938ZM172.521 245.379C168.278 248.614 163.168 253.879 159.398 260.339L158.934 261.152C162.739 254.321 168.1 248.75 172.521 245.38L172.521 245.379ZM619.509 258.004C619.387 258.06 619.265 258.115 619.143 258.171C619.268 258.113 619.394 258.057 619.519 257.999L619.509 258.004ZM544.996 231.498C549.996 227.998 505.496 200.498 436.996 209.498C369.499 220.998 351.497 251.496 353.496 253.498C355.264 255.266 402.144 248.355 444.996 242.998C505.995 235.373 541.423 233.998 544.996 231.498ZM631.895 251.109C631.78 251.184 631.665 251.257 631.55 251.331C631.674 251.251 631.798 251.171 631.922 251.091L631.895 251.109ZM175.361 243.435C174.716 243.822 174.029 244.278 173.311 244.796C174.029 244.278 174.716 243.822 175.361 243.435ZM180.882 242.885C180.964 243.026 181.04 243.181 181.112 243.347C181.074 243.259 181.035 243.174 180.994 243.093L180.882 242.885ZM176.194 242.959C176.033 243.046 175.867 243.138 175.699 243.235C175.867 243.138 176.033 243.046 176.194 242.959ZM178.685 241.94C178.315 242.023 177.896 242.163 177.435 242.357C177.896 242.163 178.315 242.023 178.685 241.94ZM179.449 241.853C179.36 241.85 179.265 241.854 179.165 241.863C179.265 241.854 179.36 241.85 179.449 241.853ZM645.849 240.464C645.46 240.809 645.05 241.164 644.622 241.533C645.062 241.154 645.483 240.788 645.881 240.435L645.849 240.464ZM615.612 238.946C614.401 238.979 613.209 238.998 612.048 238.998L612.047 238.997C613.209 238.997 614.4 238.979 615.612 238.946ZM604.83 238.805C606.432 238.892 608.11 238.951 609.863 238.979C608.11 238.951 606.432 238.892 604.83 238.805ZM602.763 238.675C603.223 238.707 603.69 238.736 604.164 238.765C603.69 238.736 603.223 238.707 602.763 238.675ZM628.161 238.205C626.337 238.361 624.482 238.501 622.63 238.619C624.482 238.501 626.337 238.361 628.161 238.205ZM600.133 238.46C600.089 238.456 600.045 238.452 600.002 238.448C600.045 238.452 600.089 238.456 600.133 238.46ZM648.231 238.285C648.17 238.343 648.107 238.401 648.044 238.46C648.117 238.392 648.189 238.325 648.259 238.259L648.231 238.285ZM599.283 238.376C599.016 238.349 598.75 238.323 598.488 238.295C598.75 238.323 599.016 238.349 599.283 238.376ZM595.203 237.891C596.183 238.026 597.211 238.155 598.285 238.272C597.211 238.155 596.183 238.026 595.203 237.891ZM631.281 237.923C630.325 238.014 629.354 238.103 628.374 238.188C629.354 238.103 630.325 238.014 631.281 237.923ZM632.543 237.798C632.232 237.829 631.92 237.861 631.606 237.892C631.92 237.861 632.232 237.829 632.543 237.798ZM644.176 236.458C641.536 236.802 638.297 237.2 634.753 237.574C638.297 237.2 641.536 236.802 644.176 236.458ZM590.743 237.171C591.346 237.283 591.976 237.392 592.631 237.5C591.976 237.392 591.346 237.283 590.743 237.171ZM590.455 237.116C590.179 237.064 589.908 237.013 589.644 236.96C589.908 237.013 590.179 237.064 590.455 237.116ZM587.688 236.547C588.195 236.66 588.729 236.773 589.288 236.887C588.729 236.773 588.195 236.66 587.688 236.547ZM650.815 235.532C650.303 235.61 648.965 235.811 647.025 236.078C648.965 235.811 650.303 235.61 650.815 235.532ZM584.724 235.818C585.009 235.895 585.31 235.974 585.624 236.054C585.31 235.974 585.009 235.895 584.724 235.818ZM584.028 235.627C583.929 235.599 583.831 235.572 583.736 235.545C583.831 235.572 583.929 235.599 584.028 235.627ZM583.512 235.478C583.181 235.381 582.877 235.291 582.602 235.205C582.877 235.291 583.181 235.381 583.512 235.478ZM581.271 234.765C581.2 234.739 581.133 234.717 581.072 234.695C581.133 234.717 581.2 234.739 581.271 234.765ZM456.047 214.998C474.547 214.498 488.289 214.998 489.047 217.498C489.804 219.998 478.547 231.498 458.047 232.498C437.548 233.498 423.512 221.499 424.047 219.998C424.583 218.498 439.047 215.458 456.047 214.998ZM262.048 38.998C262.089 39.0571 267.145 46.3308 270.548 50.998C273.538 55.0985 278.186 61.2098 279.302 62.6738C269.311 62.8857 262.629 62.9967 262.548 62.998C262.637 63.0989 284.478 87.7932 298.048 103.998C309.364 117.512 328.047 136.003 327.048 140.498C325.602 146.998 280.053 155.497 277.548 157.498C277.016 157.924 276.067 159.564 274.811 162.098L267.548 168.998C267.548 168.998 259.002 152.463 255.547 140.998C252.231 129.995 250.548 114.498 251.048 111.998C251.448 109.998 255.172 106.25 258.047 102.498C261.443 98.0648 266.548 90.998 266.548 90.998C266.548 90.998 261.082 92.5943 257.548 93.498C254.258 94.3392 249.092 95.4881 249.047 95.498C249.048 95.4766 250.17 78.9819 253.048 67.498C255.66 57.0756 262.048 38.998 262.048 38.998ZM595.771 160.991C595.937 161.047 596.103 161.1 596.27 161.155C596.108 161.102 595.946 161.05 595.785 160.996L595.771 160.991ZM593.677 160.249C593.787 160.29 593.899 160.329 594.011 160.37C593.906 160.332 593.801 160.295 593.697 160.257L593.677 160.249ZM589.311 158.504C590.172 158.873 591.235 159.312 592.418 159.771C591.235 159.312 590.172 158.873 589.311 158.504ZM588.104 157.979C588.186 158.015 588.274 158.053 588.365 158.093C588.283 158.056 588.203 158.023 588.127 157.989L588.104 157.979ZM592.511 156.812C589.858 157.169 587.932 157.395 587.284 157.47C587.931 157.395 589.858 157.169 592.511 156.812ZM596.839 156.199C596.426 156.261 596.019 156.317 595.622 156.374C596.035 156.314 596.458 156.255 596.889 156.191L596.839 156.199ZM252.548 144.998C252.757 145.64 252.985 146.303 253.229 146.983C253.964 149.026 254.85 151.23 255.824 153.498C254.525 150.474 253.382 147.565 252.547 144.998H252.548ZM604.532 154.95C604.241 155.002 603.949 155.052 603.658 155.103C603.961 155.05 604.265 154.998 604.569 154.943L604.532 154.95ZM618.077 151.825C617.583 151.985 617.065 152.141 616.527 152.296C617.065 152.141 617.583 151.985 618.077 151.825ZM624.341 149.345C623.775 149.6 623.212 149.844 622.655 150.081C623.216 149.842 623.783 149.596 624.353 149.339L624.341 149.345ZM628.748 147.238C628.207 147.51 627.664 147.777 627.12 148.041C627.664 147.777 628.207 147.51 628.748 147.238ZM248.82 130.04C248.966 130.837 249.122 131.648 249.289 132.467C249.789 134.924 250.38 137.464 251.062 139.99C250.039 136.2 249.22 132.381 248.608 128.855V128.854C248.676 129.246 248.747 129.641 248.82 130.04ZM641.156 140.381C640.926 140.518 640.687 140.658 640.441 140.804C640.699 140.651 640.949 140.504 641.189 140.36L641.156 140.381ZM641.447 138.118C640.588 138.132 639.588 138.143 638.459 138.138C639.588 138.143 640.588 138.132 641.447 138.118ZM636.216 138.111C636.827 138.123 637.411 138.129 637.967 138.134C637.411 138.129 636.827 138.123 636.216 138.111ZM643.133 138.08C642.799 138.091 642.425 138.102 642.011 138.11C642.425 138.102 642.799 138.091 643.133 138.08ZM632.393 137.996C633.694 138.05 634.914 138.085 636.043 138.107C634.914 138.085 633.694 138.05 632.393 137.996ZM644.957 138.002C644.747 138.014 644.176 138.046 643.285 138.075C644.177 138.046 644.748 138.014 644.957 138.002ZM629.496 137.854C630.38 137.904 631.235 137.945 632.058 137.98C630.786 137.926 629.439 137.856 628.023 137.763L629.496 137.854ZM616.004 136.571C617.026 136.707 618.032 136.829 619.02 136.943C618.032 136.829 617.026 136.707 616.004 136.571ZM612.637 136.089C613.603 136.236 614.557 136.373 615.497 136.501C614.557 136.373 613.603 136.236 612.637 136.089ZM597.548 17.998C597.562 18.0449 600.051 26.5188 601.434 33.998C603.103 43.0313 602.914 54.4853 602.914 54.498C602.914 54.498 596.743 55.5728 595.048 55.998C593.242 56.4512 586.79 59.4767 586.744 59.498C586.799 59.5241 596.257 64.0161 598.548 64.998C602.048 66.4978 604.556 66.4576 605.048 67.998C605.663 69.9246 606.048 85.9984 605.048 96.498C604.085 106.603 598.751 130.378 598.109 133.219C595.455 132.566 592.76 131.83 590.048 130.998C573.64 125.966 550.179 112.573 550.048 112.498C550.048 112.498 541.048 112.998 537.048 110.998C535.591 110.27 533.423 107.606 530.706 103.656L531.048 103.998C531.153 103.919 549.111 90.4234 570.548 64.998C592.048 39.4982 597.548 17.998 597.548 17.998ZM247.982 112.418C247.804 112.805 247.658 113.167 247.548 113.498C247.517 113.592 247.488 113.698 247.462 113.815C247.41 114.05 247.369 114.331 247.338 114.655C247.323 114.817 247.31 114.99 247.3 115.173C247.189 117.187 247.396 120.445 247.917 124.356C247.207 119.023 247.078 114.904 247.547 113.498C247.602 113.332 247.666 113.159 247.739 112.979L247.982 112.418ZM257.771 98.3174C257.269 98.9705 256.708 99.701 256.149 100.426L254.547 102.498C255.037 101.868 255.592 101.148 256.151 100.423L257.771 98.3174ZM245.01 99.293C245.018 100.121 245.035 100.666 245.043 100.887C245.035 100.667 245.018 100.125 245.01 99.3008V99.293ZM250.181 99.3008C248.705 99.7955 247.187 100.294 246.188 100.622C246.628 100.478 247.168 100.301 247.761 100.105L250.181 99.3008ZM245.097 93.5537C245.006 96.0082 244.998 97.9495 245.01 99.2334C244.998 97.9476 245.005 96.0026 245.097 93.543V93.5537ZM536.283 91.7314V91.7305V91.7314ZM245.324 89.1924C245.262 90.1233 245.212 91.0112 245.171 91.8516C245.212 91.0112 245.262 90.1233 245.324 89.1924ZM246.018 81.6045C245.859 82.9714 245.724 84.2903 245.61 85.5527C245.725 84.2879 245.859 82.9664 246.019 81.5967L246.018 81.6045ZM468.048 45.998L478.548 78.498L478.546 78.4961L468.047 45.998H468.048ZM572.289 52.3623C571.722 53.0826 571.141 53.7951 570.548 54.498C566.79 58.9483 562.836 63.4376 558.911 67.7764C558.35 68.3962 557.79 69.0129 557.231 69.626C556.114 70.8522 555.001 72.064 553.898 73.2568C559.411 67.2926 565.178 60.8553 570.547 54.498C571.14 53.7953 571.721 53.0833 572.288 52.3633L572.289 52.3623ZM248.061 68.8965C247.984 69.2653 247.907 69.6321 247.834 69.998C247.907 69.6321 247.984 69.2653 248.061 68.8965ZM600.958 62.873C600.919 62.8556 600.88 62.8398 600.842 62.8223C600.88 62.8398 600.919 62.8556 600.958 62.873ZM600.319 62.5732C600.443 62.6345 600.57 62.6935 600.698 62.7539C600.4 62.614 600.115 62.4729 599.847 62.3301L600.319 62.5732ZM355.977 60.0127C341.139 61.0041 316.877 61.7644 296.796 62.2695C293.449 62.3537 290.219 62.4311 287.167 62.501L287.166 62.5C290.217 62.4301 293.448 62.3537 296.795 62.2695C316.039 61.7854 339.123 61.0674 354.073 60.1357L355.977 60.0127ZM598.963 61.8291C599.029 61.869 599.098 61.9077 599.167 61.9482C599.103 61.9109 599.04 61.8756 598.979 61.8389L598.963 61.8291ZM600.318 59.8457C600.041 59.8948 599.764 59.9448 599.494 59.9961C599.764 59.9448 600.041 59.8948 600.318 59.8457ZM420.848 54.7188C405.699 55.6711 385.923 57.2929 362.548 59.498C361.605 59.587 360.58 59.6749 359.482 59.7607L357.781 59.8877C359.535 59.7614 361.132 59.6315 362.547 59.498C385.922 57.2928 405.699 55.671 420.848 54.7188ZM601.478 59.6543C601.107 59.7091 600.713 59.7757 600.318 59.8457C600.717 59.7751 601.114 59.7075 601.487 59.6523L601.478 59.6543ZM603.035 59.498C602.883 59.4986 602.701 59.5107 602.496 59.5293C602.701 59.5107 602.883 59.4986 603.035 59.498ZM456.202 55.8213C456.292 55.8838 456.382 55.9488 456.474 56.0137C456.38 55.9474 456.288 55.8812 456.196 55.8174L456.202 55.8213ZM454.497 54.7383C454.687 54.8446 454.884 54.9624 455.088 55.0889C454.884 54.9624 454.687 54.8446 454.497 54.7383ZM426.979 54.3564C426.768 54.3681 426.555 54.3796 426.342 54.3916C426.555 54.3796 426.768 54.3681 426.979 54.3564ZM445.515 53.7324C441.988 53.7205 437.463 53.845 432.021 54.0986C437.463 53.845 441.988 53.7205 445.515 53.7324ZM589.449 20.1504C586.314 28.9177 581.652 39.326 574.965 48.7744C581.652 39.326 586.314 28.9177 589.449 20.1504ZM254.861 46.1973C254.812 46.3267 254.763 46.4567 254.714 46.5869C254.767 46.4479 254.818 46.309 254.871 46.1709L254.861 46.1973ZM256.61 41.7656C256.292 42.5457 255.972 43.3484 255.648 44.1699C255.968 43.3591 256.284 42.5665 256.598 41.7959L256.61 41.7656ZM263.047 27.498C263.025 27.5402 260.544 32.3814 257.521 39.5684C260.547 32.3722 263.032 27.528 263.047 27.498ZM477.802 29.375C478.595 30.271 479.396 31.1828 480.203 32.1064C479.396 31.1828 478.595 30.271 477.802 29.375ZM595.047 0C595.022 0.145557 593.624 8.1769 589.866 18.9717C593.182 9.44614 594.66 2.07237 594.979 0.370117L595.047 0Z" fill="white"/>
</g>
<defs>
<clipPath id="clip0_27_9">
<rect width="890" height="788" fill="white"/>
</clipPath>
</defs>
</svg>
