<svg width="590" height="50" viewBox="0 0 590 50" fill="none" xmlns="http://www.w3.org/2000/svg">
<path fill-rule="evenodd" clip-rule="evenodd" d="M40 50H0V20H30V0H40V50ZM10 40H30V30H10V40Z" fill="white"/>
<path fill-rule="evenodd" clip-rule="evenodd" d="M90 50H80V40L60 50H50V20H90V50ZM60 40L80 30H60V40Z" fill="white"/>
<path fill-rule="evenodd" clip-rule="evenodd" d="M140 35L130 40H140V50H100V20H140V35ZM110 40L130 30H110V40Z" fill="white"/>
<path d="M210 40L240 25V35L210 50H200V20H210V40Z" fill="white"/>
<path d="M260 50H250V20H260V50Z" fill="white"/>
<path d="M280 25L282.5 20H310V50H300V30H285L280 40V50H270V20H280V25Z" fill="white"/>
<path d="M330 50H320V20H330V50Z" fill="white"/>
<path d="M370 30H360V50H350V30H340V20H370V30Z" fill="white"/>
<path d="M420 30L380 50V40L390 35L380 30V20L400 30L420 20V30Z" fill="white"/>
<path d="M440 50H430V40H440V50Z" fill="white"/>
<path fill-rule="evenodd" clip-rule="evenodd" d="M490 50H450V20H480V0H490V50ZM460 40H480V30H460V40Z" fill="white"/>
<path fill-rule="evenodd" clip-rule="evenodd" d="M540 35L530 40H540V50H500V20H540V35ZM510 40L530 30H510V40Z" fill="white"/>
<path d="M560 40L590 25V35L560 50H550V20H560V40Z" fill="white"/>
<path d="M190 30H150V20H190V30Z" fill="white"/>
<path d="M260 10H250V0H260V10Z" fill="white"/>
<path d="M330 10H320V0H330V10Z" fill="white"/>
</svg>
